<svg preserveAspectRatio="none" width="100%" height="100%" overflow="visible" style="display: block;" viewBox="0 0 120 51.2951" fill="none" xmlns="http://www.w3.org/2000/svg">
<g id="Logo Container">
<path id="Vector" d="M108.014 15.6073C108.152 15.2823 108.476 15.0844 108.838 15.1137L119.165 15.9498C119.666 15.9904 119.973 16.3514 119.932 16.8524L118.242 37.7286C118.202 38.2296 117.84 38.5366 117.339 38.496L111.327 38.0092C110.826 37.9687 110.519 37.6076 110.56 37.1066L111.076 30.032L107.415 37.1882C107.251 37.4831 106.929 37.6532 106.595 37.6261L101.446 37.2092C101.112 37.1821 100.821 36.9625 100.707 36.645L98.292 29.4452L97.8391 36.0766C97.7986 36.5777 97.4375 36.8846 96.9365 36.8441L90.5066 36.3235C90.0056 36.2829 89.6986 35.9218 89.7392 35.4208L91.4295 14.5446C91.47 14.0436 91.8311 13.7366 92.3321 13.7772L102.408 14.5931C102.77 14.6224 103.058 14.8698 103.143 15.2129L104.979 22.9823L108.014 15.6073Z" fill="var(--fill-0, #333333)"/>
<path id="Union" d="M73.8383 5.30021C80.4747 6.71636 84.7361 12.7082 83.326 19.3174C83.2207 19.8111 83.0863 20.2886 82.9276 20.7492C87.4008 23.2112 89.9249 28.1169 88.7927 33.4231C87.3823 40.0323 81.0199 43.757 74.4106 42.3467C73.435 42.1385 72.5354 41.8472 71.7103 41.4869C68.9904 45.1223 64.2583 46.8735 59.3891 45.8345C51.8952 44.2354 48.8764 37.7658 49.778 32.3203C45.3854 29.4956 43.7924 24.4042 44.7129 20.0906C45.896 14.5466 51.3937 9.52376 59.1226 11.173C59.5517 11.2645 59.9706 11.3762 60.3789 11.5049C62.5187 7.17903 67.4045 3.92747 73.8383 5.30021Z" fill="var(--fill-0, #F5D1EF)"/>
<path id="Vector_2" d="M33.7855 30.7114L43.3686 29.7186C43.8686 29.6668 44.2365 29.9656 44.2883 30.4656L44.8149 35.5488C44.8667 36.0488 44.5679 36.4167 44.0679 36.4685L26.346 38.3044C25.846 38.3562 25.4782 38.0574 25.4264 37.5574L23.2681 16.7245C23.2163 16.2245 23.5151 15.8566 24.0151 15.8048L31.3205 15.048C31.8205 14.9962 32.1883 15.295 32.2401 15.795L33.7855 30.7114Z" fill="var(--fill-0, #333333)"/>
<path id="Vector_3" d="M19.7833 27.1314C21.7884 28.0832 22.8995 29.8123 22.7285 32.2639C22.4855 35.7461 20.5037 38.0713 15.4056 37.7156L0.835743 36.6991C0.334294 36.6641 0.0233195 36.3065 0.0583055 35.805L1.51606 14.9113C1.55104 14.4099 1.90866 14.0989 2.41011 14.1339L14.222 14.958C19.9608 15.3584 23.0084 18.6224 22.7615 22.1604C22.5944 24.5562 21.6102 26.2231 19.7833 27.1314ZM12.5822 23.2138C13.028 23.2449 13.3856 22.9339 13.4167 22.4882L13.4186 22.4603C13.4478 22.0424 13.1368 21.6848 12.6911 21.6537L10.8803 21.5274C10.4346 21.4963 10.0769 21.8073 10.0478 22.2251L10.0458 22.253C10.0147 22.6987 10.3257 23.0563 10.7715 23.0874L12.5822 23.2138ZM11.9758 31.9056C12.4215 31.9367 12.7792 31.6257 12.8103 31.1799C12.8414 30.7342 12.5304 30.3766 12.0847 30.3455L10.2739 30.2192C9.82814 30.1881 9.47052 30.499 9.43942 30.9448L9.43748 30.9726C9.40832 31.3905 9.7193 31.7481 10.165 31.7792L11.9758 31.9056Z" fill="var(--fill-0, #333333)"/>
<path id="Subtract" d="M66.7803 23.92C67.9531 23.92 68.9033 25.2052 68.9033 26.797C68.9031 28.3885 67.953 29.6729 66.7803 29.6729C65.6076 29.6727 64.6584 28.3884 64.6582 26.797C64.6582 25.2053 65.6075 23.9202 66.7803 23.92Z" fill="var(--fill-0, #FFF8E9)"/>
</g>
</svg>
